<svg width="497" height="148" viewBox="0 0 497 148" fill="none" xmlns="http://www.w3.org/2000/svg">
<rect width="497" height="148" rx="74" fill="#D9D9D9"/>
<g filter="url(#filter0_d_0_1)">
<path d="M85.264 46.728V93H79.12V72.712H54.864V93H48.656V46.728H54.864V66.824H79.12V46.728H85.264ZM109.41 93.64C106.38 93.64 103.778 93.0427 101.602 91.848C99.4255 90.6107 97.7402 88.9467 96.5455 86.856C95.3935 84.7227 94.8175 82.2907 94.8175 79.56C94.8175 76.9573 95.4788 74.5893 96.8015 72.456C98.1242 70.3227 99.8948 68.616 102.114 67.336C104.332 66.056 106.807 65.416 109.538 65.416C113.036 65.416 115.938 66.44 118.242 68.488C120.546 70.536 122.103 73.352 122.914 76.936L101.09 84.616L99.6815 81.096L117.602 74.568L116.322 75.4C115.81 73.992 114.956 72.776 113.762 71.752C112.567 70.6853 111.01 70.152 109.09 70.152C107.468 70.152 106.018 70.5573 104.738 71.368C103.458 72.136 102.455 73.2027 101.73 74.568C101.004 75.9333 100.642 77.4907 100.642 79.24C100.642 81.0747 101.026 82.696 101.794 84.104C102.562 85.4693 103.607 86.5573 104.93 87.368C106.295 88.136 107.831 88.52 109.538 88.52C110.69 88.52 111.799 88.3067 112.866 87.88C113.975 87.4533 114.999 86.8987 115.938 86.216L118.69 90.632C117.367 91.528 115.874 92.2533 114.21 92.808C112.588 93.3627 110.988 93.64 109.41 93.64ZM130.372 43.464H136.324V93H130.372V43.464ZM146.622 43.464H152.574V93H146.622V43.464ZM221.202 46.728V93H215.058V72.712H190.802V93H184.594V46.728H190.802V66.824H215.058V46.728H221.202ZM244.067 93.64C241.592 93.64 239.331 93.1067 237.283 92.04C235.278 90.9733 233.678 89.416 232.483 87.368C231.331 85.2773 230.755 82.7387 230.755 79.752C230.755 76.808 231.374 74.2693 232.611 72.136C233.848 69.96 235.491 68.296 237.539 67.144C239.63 65.992 241.912 65.416 244.387 65.416C246.862 65.416 248.952 65.992 250.659 67.144C252.366 68.2533 253.667 69.576 254.563 71.112L254.179 72.136L254.755 66.504H260.259V93H254.307V86.088L254.947 87.624C254.776 88.0507 254.392 88.6053 253.795 89.288C253.24 89.928 252.472 90.5893 251.491 91.272C250.552 91.9547 249.464 92.5307 248.227 93C246.99 93.4267 245.603 93.64 244.067 93.64ZM245.667 88.712C247.16 88.712 248.504 88.4347 249.699 87.88C250.894 87.3253 251.875 86.5573 252.643 85.576C253.454 84.552 254.008 83.336 254.307 81.928V76.744C253.966 75.464 253.368 74.3547 252.515 73.416C251.662 72.4347 250.638 71.688 249.443 71.176C248.248 70.6213 246.926 70.344 245.475 70.344C243.896 70.344 242.446 70.728 241.123 71.496C239.8 72.264 238.734 73.3307 237.923 74.696C237.155 76.0613 236.771 77.6613 236.771 79.496C236.771 81.2027 237.176 82.76 237.987 84.168C238.798 85.576 239.886 86.6853 241.251 87.496C242.616 88.3067 244.088 88.712 245.667 88.712ZM275.871 66.504L276.447 74.184L276.127 73.16C276.81 71.5387 277.791 70.1733 279.071 69.064C280.394 67.912 281.759 67.0373 283.167 66.44C284.618 65.8 285.876 65.48 286.943 65.48L286.623 71.368C284.618 71.24 282.847 71.624 281.311 72.52C279.818 73.416 278.623 74.6107 277.727 76.104C276.874 77.5973 276.447 79.1973 276.447 80.904V93H270.559V66.504H275.871ZM304.249 93.64C301.817 93.64 299.598 93.064 297.593 91.912C295.63 90.7173 294.073 89.0533 292.921 86.92C291.769 84.744 291.193 82.248 291.193 79.432C291.193 76.488 291.79 73.9707 292.985 71.88C294.222 69.7893 295.886 68.1893 297.977 67.08C300.067 65.9707 302.414 65.416 305.017 65.416C307.107 65.416 309.091 65.864 310.969 66.76C312.889 67.656 314.382 68.8933 315.449 70.472L315.193 72.584V43.464H321.081V93H315.129V86.408L315.769 88.072C314.531 89.6933 312.931 91.0373 310.969 92.104C309.006 93.128 306.766 93.64 304.249 93.64ZM306.105 88.584C307.683 88.584 309.091 88.3067 310.329 87.752C311.566 87.1547 312.59 86.344 313.401 85.32C314.211 84.296 314.787 83.08 315.129 81.672V76.68C314.787 75.4 314.169 74.2907 313.273 73.352C312.419 72.3707 311.374 71.6027 310.137 71.048C308.942 70.4507 307.598 70.152 306.105 70.152C304.483 70.152 302.99 70.5573 301.625 71.368C300.302 72.136 299.235 73.2027 298.425 74.568C297.614 75.9333 297.209 77.512 297.209 79.304C297.209 81.0533 297.614 82.632 298.425 84.04C299.235 85.4053 300.323 86.5147 301.689 87.368C303.054 88.1787 304.526 88.584 306.105 88.584ZM348.394 66.504L356.202 84.36L355.05 84.488L362.346 66.504H368.17L356.01 94.6L347.498 76.424L339.754 94.6L327.466 66.504H333.29L341.546 85.192L339.498 84.808L345.386 71.112L343.274 66.504H348.394ZM384.692 93.64C382.217 93.64 379.956 93.1067 377.908 92.04C375.903 90.9733 374.303 89.416 373.108 87.368C371.956 85.2773 371.38 82.7387 371.38 79.752C371.38 76.808 371.999 74.2693 373.236 72.136C374.473 69.96 376.116 68.296 378.164 67.144C380.255 65.992 382.537 65.416 385.012 65.416C387.487 65.416 389.577 65.992 391.284 67.144C392.991 68.2533 394.292 69.576 395.188 71.112L394.804 72.136L395.38 66.504H400.884V93H394.932V86.088L395.572 87.624C395.401 88.0507 395.017 88.6053 394.42 89.288C393.865 89.928 393.097 90.5893 392.116 91.272C391.177 91.9547 390.089 92.5307 388.852 93C387.615 93.4267 386.228 93.64 384.692 93.64ZM386.292 88.712C387.785 88.712 389.129 88.4347 390.324 87.88C391.519 87.3253 392.5 86.5573 393.268 85.576C394.079 84.552 394.633 83.336 394.932 81.928V76.744C394.591 75.464 393.993 74.3547 393.14 73.416C392.287 72.4347 391.263 71.688 390.068 71.176C388.873 70.6213 387.551 70.344 386.1 70.344C384.521 70.344 383.071 70.728 381.748 71.496C380.425 72.264 379.359 73.3307 378.548 74.696C377.78 76.0613 377.396 77.6613 377.396 79.496C377.396 81.2027 377.801 82.76 378.612 84.168C379.423 85.576 380.511 86.6853 381.876 87.496C383.241 88.3067 384.713 88.712 386.292 88.712ZM416.496 66.504L417.072 74.184L416.752 73.16C417.435 71.5387 418.416 70.1733 419.696 69.064C421.019 67.912 422.384 67.0373 423.792 66.44C425.243 65.8 426.501 65.48 427.568 65.48L427.248 71.368C425.243 71.24 423.472 71.624 421.936 72.52C420.443 73.416 419.248 74.6107 418.352 76.104C417.499 77.5973 417.072 79.1973 417.072 80.904V93H411.184V66.504H416.496ZM446.41 93.64C443.38 93.64 440.778 93.0427 438.602 91.848C436.426 90.6107 434.74 88.9467 433.546 86.856C432.394 84.7227 431.818 82.2907 431.818 79.56C431.818 76.9573 432.479 74.5893 433.802 72.456C435.124 70.3227 436.895 68.616 439.114 67.336C441.332 66.056 443.807 65.416 446.538 65.416C450.036 65.416 452.938 66.44 455.242 68.488C457.546 70.536 459.103 73.352 459.914 76.936L438.09 84.616L436.682 81.096L454.602 74.568L453.322 75.4C452.81 73.992 451.956 72.776 450.762 71.752C449.567 70.6853 448.01 70.152 446.09 70.152C444.468 70.152 443.018 70.5573 441.738 71.368C440.458 72.136 439.455 73.2027 438.73 74.568C438.004 75.9333 437.642 77.4907 437.642 79.24C437.642 81.0747 438.026 82.696 438.794 84.104C439.562 85.4693 440.607 86.5573 441.93 87.368C443.295 88.136 444.831 88.52 446.538 88.52C447.69 88.52 448.799 88.3067 449.866 87.88C450.975 87.4533 451.999 86.8987 452.938 86.216L455.69 90.632C454.367 91.528 452.874 92.2533 451.21 92.808C449.588 93.3627 447.988 93.64 446.41 93.64Z" fill="#720A23"/>
</g>
<defs>
<filter id="filter0_d_0_1" x="44.656" y="43.464" width="419.258" height="59.136" filterUnits="userSpaceOnUse" color-interpolation-filters="sRGB">
<feFlood flood-opacity="0" result="BackgroundImageFix"/>
<feColorMatrix in="SourceAlpha" type="matrix" values="0 0 0 0 0 0 0 0 0 0 0 0 0 0 0 0 0 0 127 0" result="hardAlpha"/>
<feOffset dy="4"/>
<feGaussianBlur stdDeviation="2"/>
<feComposite in2="hardAlpha" operator="out"/>
<feColorMatrix type="matrix" values="0 0 0 0 0 0 0 0 0 0 0 0 0 0 0 0 0 0 0.25 0"/>
<feBlend mode="normal" in2="BackgroundImageFix" result="effect1_dropShadow_0_1"/>
<feBlend mode="normal" in="SourceGraphic" in2="effect1_dropShadow_0_1" result="shape"/>
</filter>
</defs>
</svg>
